<?xml version="1.0" encoding="UTF-8" standalone="no"?>
<!-- Created with Inkscape (http://www.inkscape.org/) -->

<svg
   width="241.35349mm"
   height="46.693989mm"
   viewBox="0 0 241.35349 46.693989"
   version="1.1"
   id="svg5"
   xml:space="preserve"
   sodipodi:docname="logo_complementa_light.svg"
   inkscape:version="1.2 (dc2aedaf03, 2022-05-15)"
   xmlns:inkscape="http://www.inkscape.org/namespaces/inkscape"
   xmlns:sodipodi="http://sodipodi.sourceforge.net/DTD/sodipodi-0.dtd"
   xmlns:xlink="http://www.w3.org/1999/xlink"
   xmlns="http://www.w3.org/2000/svg"
   xmlns:svg="http://www.w3.org/2000/svg"><sodipodi:namedview
     id="namedview7"
     pagecolor="#505050"
     bordercolor="#eeeeee"
     borderopacity="1"
     inkscape:showpageshadow="0"
     inkscape:pageopacity="0"
     inkscape:pagecheckerboard="0"
     inkscape:deskcolor="#505050"
     inkscape:document-units="mm"
     showgrid="false"
     inkscape:zoom="0.5"
     inkscape:cx="791"
     inkscape:cy="186"
     inkscape:window-width="1920"
     inkscape:window-height="1027"
     inkscape:window-x="1912"
     inkscape:window-y="-8"
     inkscape:window-maximized="1"
     inkscape:current-layer="g4815" /><defs
     id="defs2"><linearGradient
       inkscape:collect="always"
       id="linearGradient3177"><stop
         style="stop-color:#1f63b5;stop-opacity:1;"
         offset="0"
         id="stop3173" /><stop
         style="stop-color:#2e81de;stop-opacity:1;"
         offset="0.20098621"
         id="stop3977" /><stop
         style="stop-color:#3199e9;stop-opacity:1;"
         offset="1"
         id="stop3175" /></linearGradient><linearGradient
       inkscape:collect="always"
       id="linearGradient3082"><stop
         style="stop-color:#01d14f;stop-opacity:1;"
         offset="0"
         id="stop3078" /><stop
         style="stop-color:#44ed84;stop-opacity:1;"
         offset="1"
         id="stop3080" /></linearGradient><linearGradient
       inkscape:collect="always"
       xlink:href="#linearGradient3082"
       id="linearGradient3084"
       x1="76.795311"
       y1="250.22969"
       x2="86.518753"
       y2="210.34375"
       gradientUnits="userSpaceOnUse" /><radialGradient
       inkscape:collect="always"
       xlink:href="#linearGradient3177"
       id="radialGradient3975"
       cx="78.779068"
       cy="227.58656"
       fx="78.779068"
       fy="227.58656"
       r="13.35342"
       gradientTransform="matrix(0.42202237,-1.0576391,1.0712766,0.42746402,-197.85953,212.41996)"
       gradientUnits="userSpaceOnUse" /></defs><g
     inkscape:label="Camada 1"
     inkscape:groupmode="layer"
     id="layer1"
     transform="translate(-60.509711,-204.53397)"><g
       id="g4822"><g
         id="g4815"><path
           id="rect562"
           style="fill:url(#radialGradient3975);fill-opacity:1;stroke:none;stroke-width:2;stroke-dasharray:none;stroke-dashoffset:64.6717;paint-order:markers stroke fill;stop-color:#000000"
           d="m 73.862901,204.53448 a 6.0112448,6.0112448 0 0 0 -6.01152,6.011 6.0112448,6.0112448 0 0 0 0.93999,3.21996 h -6.69933 a 1.5824475,1.5824475 0 0 0 -1.58233,1.58285 v 4.47466 a 1.5824475,1.5824475 0 0 0 1.58233,1.58285 1.5824475,1.5824475 0 0 0 0.21136,-0.0155 4.5077319,4.5077319 0 0 1 0.58756,-0.0424 4.5077319,4.5077319 0 0 1 4.50773,4.50773 4.5077319,4.5077319 0 0 1 -4.50773,4.50774 4.5077319,4.5077319 0 0 1 -0.6842,-0.0563 v 0.004 a 1.5824475,1.5824475 0 0 0 -0.11472,-0.004 1.5824475,1.5824475 0 0 0 -1.58233,1.58233 v 7.00009 a 1.5824475,1.5824475 0 0 0 1.58233,1.58285 h 5.35264 a 1.5824475,1.5824475 0 0 0 1.58234,-1.58285 1.5824475,1.5824475 0 0 0 -0.10904,-0.57619 h 0.0041 a 5.3797693,5.3797693 0 0 1 -0.43873,-2.11821 5.3797693,5.3797693 0 0 1 5.38003,-5.38004 5.3797693,5.3797693 0 0 1 5.38004,5.37952 5.3797693,5.3797693 0 0 1 -0.43874,2.11873 h 0.0036 a 1.5824475,1.5824475 0 0 0 -0.10904,0.57619 1.5824475,1.5824475 0 0 0 1.58234,1.58234 v 5.1e-4 h 5.35264 v -5.1e-4 a 1.5824475,1.5824475 0 0 0 1.58233,-1.58234 v -7.00009 a 1.5824475,1.5824475 0 0 0 -1.58233,-1.58233 1.5824475,1.5824475 0 0 0 -0.11472,0.004 v -0.004 a 4.5077319,4.5077319 0 0 1 -0.6842,0.0563 4.5077319,4.5077319 0 0 1 -4.50773,-4.50774 4.5077319,4.5077319 0 0 1 4.50773,-4.50773 4.5077319,4.5077319 0 0 1 0.58756,0.0424 1.5824475,1.5824475 0 0 0 0.21136,0.0155 1.5824475,1.5824475 0 0 0 1.58233,-1.58285 v -4.47517 a 1.5824475,1.5824475 0 0 0 -1.58233,-1.58234 h -6.69933 a 6.0112448,6.0112448 0 0 0 0.93999,-3.21996 6.0112448,6.0112448 0 0 0 -6.01152,-6.01151 z" /><path
           id="path2184"
           style="fill:url(#linearGradient3084);fill-opacity:1;stroke:none;stroke-width:2;stroke-dasharray:none;stroke-dashoffset:64.6717;paint-order:markers stroke fill;stop-color:#000000"
           d="m 85.240821,213.75241 c -3.461974,-1.6e-4 -6.268582,2.80621 -6.268724,6.26818 0.0015,1.18958 0.341488,2.35417 0.980208,3.35773 h -6.985962 c -0.911469,7e-5 -1.650261,0.7391 -1.65003,1.65057 v 4.13694 c -2.31e-4,0.91147 0.738561,1.65051 1.65003,1.65057 0.07375,-4.3e-4 0.147378,-0.006 0.220403,-0.0161 0.203051,-0.0281 0.407721,-0.0428 0.612699,-0.0442 2.596064,0 5.261859,1.84615 5.261859,5.13192 0,3.28577 -2.703926,4.96796 -5.975332,4.81416 v 0.004 c -0.03982,-0.003 -0.07972,-0.004 -0.119629,-0.004 -0.911258,7e-5 -1.649962,0.73877 -1.65003,1.65003 v 7.22518 c -2.31e-4,0.91147 0.738561,1.6505 1.65003,1.65057 h 5.581653 c 0.911474,-6e-5 1.650272,-0.7391 1.650041,-1.65057 -1.37e-4,-0.20561 -0.0387,-0.40939 -0.113705,-0.60084 h 0.0042 c -0.300481,-0.69771 -0.456127,-1.44918 -0.457501,-2.20884 -1.58e-4,-3.0985 2.511711,-5.61038 5.610215,-5.61023 3.098298,-1.6e-4 5.610086,2.51139 5.610226,5.60969 -0.0013,0.75984 -0.156956,1.5115 -0.457512,2.20938 h 0.0042 c -0.075,0.19145 -0.113568,0.39523 -0.113706,0.60084 5.7e-5,0.91127 0.738771,1.64999 1.650041,1.65005 v 5.2e-4 h 5.581653 v -5.2e-4 c 0.911267,-7e-5 1.649974,-0.73878 1.650031,-1.65005 v -7.29959 c -6.8e-5,-0.91126 -0.738772,-1.64996 -1.650031,-1.65003 -0.03991,-1.1e-4 -0.07981,0.001 -0.119628,0.004 v -0.004 c -0.235986,0.0377 -0.474502,0.0573 -0.713473,0.0587 -2.596073,0 -4.700603,-2.10454 -4.700595,-4.70061 3e-6,-2.59606 2.10453,-4.70059 4.700595,-4.70059 0.204978,0.001 0.409648,0.0161 0.612698,0.0442 0.07303,0.0103 0.146658,0.0157 0.220403,0.0161 0.91147,-7e-5 1.650262,-0.7391 1.650031,-1.65057 v -4.66664 c -6.2e-5,-0.91126 -0.738768,-1.64997 -1.650031,-1.65004 h -6.985961 c 0.63872,-1.00356 0.978693,-2.16815 0.980207,-3.35773 1.51e-4,-3.46218 -2.806542,-6.26887 -6.268723,-6.26871 z"
           sodipodi:nodetypes="ccccccccczccccccccccccccccccccccccccscccccccccc" /></g><g
         aria-label="complementa"
         id="text4033"
         style="font-weight:600;font-size:26.2002px;line-height:1.25;font-family:Poppins;-inkscape-font-specification:'Poppins Semi-Bold';fill:#ffffff;stroke-width:0.264583"><path
           d="m 129.00481,225.2573 -2.90402,1.59913 q -0.81876,-0.85713 -1.62472,-1.18975 -0.79317,-0.33262 -1.86779,-0.33262 -1.95734,0 -3.17268,1.17696 -1.20255,1.16417 -1.20255,2.99358 0,1.77823 1.16417,2.90402 1.16417,1.12579 3.05754,1.12579 2.34113,0 3.64603,-1.59913 l 2.75051,1.88058 q -2.23879,2.90402 -6.31978,2.90402 -3.67161,0 -5.75688,-2.17482 -2.07248,-2.17482 -2.07248,-5.09164 0,-2.0213 1.01066,-3.72278 1.01065,-1.70148 2.81447,-2.67375 1.81662,-0.97227 4.0554,-0.97227 2.07248,0 3.72279,0.83155 1.6503,0.81875 2.69933,2.34113 z"
           style="font-weight:bold;font-family:'Century Gothic';-inkscape-font-specification:'Century Gothic Bold';fill:#ffffff"
           id="path4914" /><path
           d="m 138.68916,222.08462 q 1.97014,0 3.6972,0.98506 1.73986,0.98507 2.71213,2.67375 0.97227,1.68869 0.97227,3.64603 0,1.97013 -0.98506,3.6844 -0.97228,1.71427 -2.66096,2.68654 -1.68869,0.95948 -3.72278,0.95948 -2.99358,0 -5.11723,-2.12364 -2.11086,-2.13645 -2.11086,-5.1812 0,-3.26223 2.39231,-5.43705 2.09806,-1.89337 4.82298,-1.89337 z m 0.0512,3.28782 q -1.62472,0 -2.71213,1.13858 -1.07462,1.12579 -1.07462,2.89123 0,1.81662 1.06182,2.94241 1.07462,1.12579 2.71213,1.12579 1.63751,0 2.72493,-1.13859 1.08741,-1.13858 1.08741,-2.92961 0,-1.79103 -1.07462,-2.90402 -1.06183,-1.12579 -2.72492,-1.12579 z"
           style="font-weight:bold;font-family:'Century Gothic';-inkscape-font-specification:'Century Gothic Bold';fill:#ffffff"
           id="path4916" /><path
           d="m 148.89803,222.44282 h 3.5053 v 1.59914 q 0.89551,-0.98507 1.98292,-1.47121 1.10021,-0.48613 2.39231,-0.48613 1.30489,0 2.35392,0.63965 1.04903,0.63965 1.68869,1.86779 0.83155,-1.22814 2.03409,-1.86779 1.21535,-0.63965 2.64817,-0.63965 1.48399,0 2.60978,0.69082 1.12579,0.69083 1.61193,1.80383 0.49893,1.11299 0.49893,3.62043 v 8.16198 h -3.51809 v -7.06177 q 0,-2.36672 -0.58848,-3.19827 -0.58848,-0.84434 -1.76545,-0.84434 -0.89551,0 -1.61192,0.51172 -0.70362,0.51172 -1.04903,1.42003 -0.34542,0.89552 -0.34542,2.89123 v 6.2814 h -3.51809 v -6.74195 q 0,-1.86778 -0.28145,-2.69933 -0.26865,-0.84435 -0.81875,-1.25372 -0.55011,-0.40938 -1.33048,-0.40938 -0.86993,0 -1.58634,0.52451 -0.70362,0.51173 -1.06183,1.44562 -0.34541,0.93389 -0.34541,2.94241 v 6.19184 h -3.5053 z"
           style="font-weight:bold;font-family:'Century Gothic';-inkscape-font-specification:'Century Gothic Bold';fill:#ffffff"
           id="path4918" /><path
           d="m 177.01719,222.44282 v 1.53517 q 0.94669,-0.94669 2.04689,-1.42003 1.1002,-0.47334 2.35392,-0.47334 2.72493,0 4.63109,2.05968 1.90617,2.05968 1.90617,5.28354 0,3.10871 -1.97013,5.20678 -1.97013,2.08526 -4.66947,2.08526 -1.20255,0 -2.23879,-0.42217 -1.03624,-0.43496 -2.05968,-1.40723 v 6.56284 h -3.46692 v -19.0105 z m 3.67161,2.86565 q -1.65031,0 -2.73772,1.12579 -1.08741,1.12579 -1.08741,2.94241 0,1.85499 1.08741,3.00637 1.08741,1.13858 2.73772,1.13858 1.59913,0 2.68654,-1.16417 1.10021,-1.16417 1.10021,-2.96799 0,-1.79103 -1.07462,-2.92961 -1.07462,-1.15138 -2.71213,-1.15138 z"
           style="font-weight:bold;font-family:'Century Gothic';-inkscape-font-specification:'Century Gothic Bold';fill:#ffffff"
           id="path4920" /><path
           d="m 190.47549,217.06974 h 3.49251 v 19.29194 h -3.49251 z"
           style="font-weight:bold;font-family:'Century Gothic';-inkscape-font-specification:'Century Gothic Bold';fill:#ffffff"
           id="path4922" /><path
           d="m 211.07233,230.4129 h -11.21952 q 0.24307,1.484 1.2921,2.36672 1.06182,0.86993 2.69933,0.86993 1.95734,0 3.36458,-1.36886 l 2.94241,1.38165 q -1.10021,1.56076 -2.63538,2.31555 -1.53516,0.74199 -3.64602,0.74199 -3.27502,0 -5.33471,-2.05968 -2.05968,-2.07248 -2.05968,-5.18119 0,-3.18547 2.04689,-5.28354 2.05968,-2.11085 5.1556,-2.11085 3.28782,0 5.34751,2.11085 2.05968,2.09807 2.05968,5.55219 z m -3.5053,-2.75051 q -0.34542,-1.16416 -1.36886,-1.89337 -1.01065,-0.7292 -2.35393,-0.7292 -1.4584,0 -2.55861,0.81875 -0.69082,0.51172 -1.27931,1.80382 z"
           style="font-weight:bold;font-family:'Century Gothic';-inkscape-font-specification:'Century Gothic Bold';fill:#ffffff"
           id="path4924" /><path
           d="m 213.87401,222.44282 h 3.5053 v 1.59914 q 0.89552,-0.98507 1.98293,-1.47121 1.1002,-0.48613 2.3923,-0.48613 1.30489,0 2.35393,0.63965 1.04903,0.63965 1.68868,1.86779 0.83155,-1.22814 2.0341,-1.86779 1.21534,-0.63965 2.64816,-0.63965 1.484,0 2.60979,0.69082 1.12579,0.69083 1.61192,1.80383 0.49893,1.11299 0.49893,3.62043 v 8.16198 h -3.51809 v -7.06177 q 0,-2.36672 -0.58848,-3.19827 -0.58848,-0.84434 -1.76544,-0.84434 -0.89552,0 -1.61193,0.51172 -0.70362,0.51172 -1.04903,1.42003 -0.34541,0.89552 -0.34541,2.89123 v 6.2814 h -3.5181 v -6.74195 q 0,-1.86778 -0.28145,-2.69933 -0.26865,-0.84435 -0.81875,-1.25372 -0.5501,-0.40938 -1.33048,-0.40938 -0.86993,0 -1.58634,0.52451 -0.70362,0.51173 -1.06182,1.44562 -0.34542,0.93389 -0.34542,2.94241 v 6.19184 h -3.5053 z"
           style="font-weight:bold;font-family:'Century Gothic';-inkscape-font-specification:'Century Gothic Bold';fill:#ffffff"
           id="path4926" /><path
           d="m 252.47069,230.4129 h -11.21952 q 0.24307,1.484 1.2921,2.36672 1.06182,0.86993 2.69934,0.86993 1.95734,0 3.36457,-1.36886 l 2.94241,1.38165 q -1.10021,1.56076 -2.63537,2.31555 -1.53517,0.74199 -3.64603,0.74199 -3.27502,0 -5.33471,-2.05968 -2.05968,-2.07248 -2.05968,-5.18119 0,-3.18547 2.04689,-5.28354 2.05968,-2.11085 5.15561,-2.11085 3.28781,0 5.3475,2.11085 2.05968,2.09807 2.05968,5.55219 z m -3.5053,-2.75051 q -0.34541,-1.16416 -1.36886,-1.89337 -1.01065,-0.7292 -2.35392,-0.7292 -1.45841,0 -2.55862,0.81875 -0.69082,0.51172 -1.2793,1.80382 z"
           style="font-weight:bold;font-family:'Century Gothic';-inkscape-font-specification:'Century Gothic Bold';fill:#ffffff"
           id="path4928" /><path
           d="m 255.29795,222.44282 h 3.47972 v 1.42003 q 1.18975,-0.99786 2.14923,-1.38165 0.97227,-0.39658 1.98293,-0.39658 2.07247,0 3.51809,1.44561 1.21534,1.22814 1.21534,3.63323 v 9.19822 h -3.45413 v -6.10229 q 0,-2.49465 -0.23027,-3.31341 -0.21748,-0.81875 -0.78038,-1.24092 -0.5501,-0.43497 -1.36886,-0.43497 -1.06182,0 -1.82941,0.71641 -0.75479,0.70362 -1.04903,1.95734 -0.15351,0.65245 -0.15351,2.82727 v 5.59057 h -3.47972 z"
           style="font-weight:bold;font-family:'Century Gothic';-inkscape-font-specification:'Century Gothic Bold';fill:#ffffff"
           id="path4930" /><path
           d="m 271.44281,217.3128 h 3.47971 v 5.13002 h 2.07248 v 3.00637 h -2.07248 v 10.91249 h -3.47971 v -10.91249 h -1.79103 v -3.00637 h 1.79103 z"
           style="font-weight:bold;font-family:'Century Gothic';-inkscape-font-specification:'Century Gothic Bold';fill:#ffffff"
           id="path4932" /><path
           d="m 289.1612,222.44282 h 3.47971 v 13.91886 h -3.47971 v -1.4712 q -1.02345,0.97227 -2.05969,1.40723 -1.02344,0.42217 -2.22599,0.42217 -2.69934,0 -4.66947,-2.08526 -1.97013,-2.09807 -1.97013,-5.20678 0,-3.22386 1.90617,-5.28354 1.90616,-2.05968 4.63109,-2.05968 1.25372,0 2.35392,0.47334 1.1002,0.47334 2.0341,1.42003 z m -3.67161,2.86565 q -1.62472,0 -2.69934,1.15138 -1.07462,1.13858 -1.07462,2.92961 0,1.80382 1.08741,2.96799 1.10021,1.16417 2.69934,1.16417 1.65031,0 2.73772,-1.13858 1.08741,-1.15138 1.08741,-3.00637 0,-1.81662 -1.08741,-2.94241 -1.08741,-1.12579 -2.75051,-1.12579 z"
           style="font-weight:bold;font-family:'Century Gothic';-inkscape-font-specification:'Century Gothic Bold';fill:#ffffff"
           id="path4934" /></g></g></g></svg>
